# xmcd
#
# Track frame offsets:
# 150
# 16446
# 34480
# 54573
# 72040
# 88213
# 104569
# 123211
# 140788
# 157730
# 175115
# 193152
# 206551
# 225562
# 243963
#
# Disc length: 3472 seconds
#
#
# Revision: 7
# Processed by: cddbd v1.5.1PL2 Copyright (c) Steve Scherf et al.
# Submitted via: FreeRIP 2.944 
#
DISCID=d00d8e0f
DTITLE=Rick and Renner - Só Pensando em Você
DYEAR=2002
DGENRE=Sertanejo
TTITLE0=Você Decide
TTITLE1=É Você
TTITLE2=Só Pensando em Você
TTITLE3=Não Quero, Mas Eu Te Amo
TTITLE4=Eu Sem Você
TTITLE5=Vou Ganhar Você
TTITLE6=Tchau Saudade
TTITLE7=Chama Por Ela
TTITLE8=Simbora. Bora
TTITLE9=Noistropica, Mas Não Cai
TTITLE10=Eu Amo Essa Mulher
TTITLE11=Vontade de Te Ver
TTITLE12=Paixão Caliente
TTITLE13=Onde Anda Você
TTITLE14=Rodeio e Vaquejada
EXTD=YEAR: 2002
EXTT0=
EXTT1=
EXTT2=
EXTT3=
EXTT4=
EXTT5=
EXTT6=
EXTT7=
EXTT8=
EXTT9=
EXTT10=
EXTT11=
EXTT12=
EXTT13=
EXTT14=
PLAYORDER=
